<mxfile host="app.diagrams.net" modified="2023-08-29T13:47:22.782Z" agent="Mozilla/5.0 (Windows NT 10.0; Win64; x64) AppleWebKit/537.36 (KHTML, like Gecko) Chrome/116.0.0.0 Safari/537.36" etag="RS_ULA4N4vnxn5Wh0WEL" version="21.6.9" type="github">
  <diagram name="PÃ¡gina-1" id="i9woh1Lm_UZ7sBVEvDLw">
    <mxGraphModel dx="880" dy="478" grid="1" gridSize="10" guides="1" tooltips="1" connect="1" arrows="1" fold="1" page="1" pageScale="1" pageWidth="827" pageHeight="1169" math="0" shadow="0">
      <root>
        <mxCell id="0" />
        <mxCell id="1" parent="0" />
      </root>
    </mxGraphModel>
  </diagram>
</mxfile>
